{
  "asset": {"version": "2.0", "generator": "Tina complete_pbr fixture"},
  "scenes": [{"nodes": [0, 1]}],
  "nodes": [
    {"name": "Left", "mesh": 0},
    {"name": "Right", "mesh": 1, "translation": [2.0, 0.0, 0.0]}
  ],
  "meshes": [
    {
      "name": "MeshA",
      "primitives": [{
        "attributes": {"POSITION": 0, "NORMAL": 1, "TEXCOORD_0": 2},
        "indices": 3,
        "mode": 4,
        "material": 0
      }]
    },
    {
      "name": "MeshB",
      "primitives": [{
        "attributes": {"POSITION": 4, "NORMAL": 5, "TEXCOORD_0": 6},
        "indices": 7,
        "mode": 4,
        "material": 1
      }]
    }
  ],
  "materials": [
    {
      "name": "MatDielectric",
      "pbrMetallicRoughness": {
        "baseColorFactor": [0.95, 0.35, 0.25, 1.0],
        "metallicFactor": 0.1,
        "roughnessFactor": 0.7,
        "baseColorTexture": {"index": 0},
        "metallicRoughnessTexture": {"index": 1}
      },
      "normalTexture": {"index": 2}
    },
    {
      "name": "MatMetal",
      "pbrMetallicRoughness": {
        "baseColorFactor": [0.85, 0.85, 0.9, 1.0],
        "metallicFactor": 0.9,
        "roughnessFactor": 0.2,
        "baseColorTexture": {"index": 0},
        "metallicRoughnessTexture": {"index": 1}
      },
      "normalTexture": {"index": 2}
    }
  ],
  "textures": [
    {"source": 0, "name": "BaseColor"},
    {"source": 1, "name": "MetallicRoughness"},
    {"source": 2, "name": "Normal"}
  ],
  "images": [
    {"uri": "base_color.png"},
    {"uri": "metallic_roughness.png"},
    {"uri": "normal.png"}
  ],
  "accessors": [
    {
      "bufferView": 0, "componentType": 5126, "count": 3, "type": "VEC3",
      "max": [1.0, 1.0, 0.0], "min": [0.0, 0.0, 0.0]
    },
    {"bufferView": 1, "componentType": 5126, "count": 3, "type": "VEC3"},
    {"bufferView": 2, "componentType": 5126, "count": 3, "type": "VEC2"},
    {"bufferView": 3, "componentType": 5123, "count": 3, "type": "SCALAR"},
    {
      "bufferView": 4, "componentType": 5126, "count": 3, "type": "VEC3",
      "max": [1.0, 1.0, 0.0], "min": [0.0, 0.0, 0.0]
    },
    {"bufferView": 5, "componentType": 5126, "count": 3, "type": "VEC3"},
    {"bufferView": 6, "componentType": 5126, "count": 3, "type": "VEC2"},
    {"bufferView": 7, "componentType": 5123, "count": 3, "type": "SCALAR"}
  ],
  "bufferViews": [
    {"buffer": 0, "byteOffset": 0, "byteLength": 36},
    {"buffer": 0, "byteOffset": 36, "byteLength": 36},
    {"buffer": 0, "byteOffset": 72, "byteLength": 24},
    {"buffer": 0, "byteOffset": 96, "byteLength": 6},
    {"buffer": 0, "byteOffset": 104, "byteLength": 36},
    {"buffer": 0, "byteOffset": 140, "byteLength": 36},
    {"buffer": 0, "byteOffset": 176, "byteLength": 24},
    {"buffer": 0, "byteOffset": 200, "byteLength": 6}
  ],
  "buffers": [{
    "byteLength": 208,
    "uri": "geometry.bin"
  }]
}